<?xml version="1.0"?>
<svg xmlns="http://www.w3.org/2000/svg" height="512px" viewBox="0 0 456 456" width="512px" class=""><g><path d="m212 36c79.398438 0 144 86.128906 144 192s-64.601562 192-144 192-144-86.128906-144-192 64.601562-192 144-192zm0 0" fill="#b7c0d7" data-original="#B7C0D7" class=""/><path d="m212 424c-81.609375 0-148-87.929688-148-196s66.390625-196 148-196 148 87.929688 148 196-66.390625 196-148 196zm0-384c-77.191406 0-140 84.335938-140 188s62.808594 188 140 188 140-84.335938 140-188-62.808594-188-140-188zm0 0" fill="#212a41" data-original="#212A41" class=""/><path d="m180 4c-97.199219 0-176 100.289062-176 224s78.800781 224 176 224 176-100.289062 176-224-78.800781-224-176-224zm0 416c-79.398438 0-144-86.128906-144-192s64.601562-192 144-192 144 86.128906 144 192-64.601562 192-144 192zm0 0" fill="#005b8a" data-original="#005B8A" class="" style="fill:#374957" data-old_color="#005b8a"/><path d="m180 456c-99.257812 0-180-102.28125-180-228s80.742188-228 180-228 180 102.28125 180 228-80.742188 228-180 228zm0-448c-94.839844 0-172 98.6875-172 220s77.160156 220 172 220 172-98.6875 172-220-77.160156-220-172-220zm0 416c-81.609375 0-148-87.929688-148-196s66.390625-196 148-196 148 87.929688 148 196-66.390625 196-148 196zm0-384c-77.191406 0-140 84.335938-140 188s62.808594 188 140 188 140-84.335938 140-188-62.808594-188-140-188zm0 0" fill="#212a41" data-original="#212A41" class=""/><path d="m212 452c97.199219 0 176-100.289062 176-224s-78.800781-224-176-224-176 100.289062-176 224 78.800781 224 176 224zm0-416c79.398438 0 144 86.128906 144 192s-64.601562 192-144 192-144-86.128906-144-192 64.601562-192 144-192zm0 0" fill="#0079a8" data-original="#0079A8" class="" style="fill:#FFCE00" data-old_color="#0079a8"/><path d="m212 456c-99.257812 0-180-102.28125-180-228s80.742188-228 180-228 180 102.28125 180 228-80.742188 228-180 228zm0-448c-94.839844 0-172 98.6875-172 220s77.160156 220 172 220 172-98.6875 172-220-77.160156-220-172-220zm0 416c-81.609375 0-148-87.929688-148-196s66.390625-196 148-196 148 87.929688 148 196-66.390625 196-148 196zm0-384c-77.191406 0-140 84.335938-140 188s62.808594 188 140 188 140-84.335938 140-188-62.808594-188-140-188zm0 0" fill="#212a41" data-original="#212A41" class=""/><path d="m52 232c-2.207031 0-4-1.792969-4-4 0-116.894531 73.566406-212 164-212 2.207031 0 4 1.792969 4 4s-1.792969 4-4 4c-86.015625 0-156 91.511719-156 204 0 2.207031-1.792969 4-4 4zm0 0" fill="#1e97c6" data-original="#1E97C6" class="active-path" style="fill:#374957" data-old_color="#1e97c6"/><path d="m212 440c-2.207031 0-4-1.792969-4-4s1.792969-4 4-4c86.015625 0 156-91.511719 156-204 0-2.207031 1.792969-4 4-4s4 1.792969 4 4c0 116.894531-73.566406 212-164 212zm0 0" fill="#005b8a" data-original="#005B8A" class="" style="fill:#374957" data-old_color="#005b8a"/><path d="m268 240h-64c-4.414062 0-8-3.585938-8-8v-8c0-4.414062 3.585938-8 8-8h64c4.414062 0 8 3.585938 8 8v8c0 4.414062-3.585938 8-8 8zm0 0" fill="#e0e0e0" data-original="#E0E0E0" class="" style="fill:#E0E0E0"/><path d="m268 244h-64c-6.617188 0-12-5.382812-12-12v-8c0-6.617188 5.382812-12 12-12h64c6.617188 0 12 5.382812 12 12v8c0 6.617188-5.382812 12-12 12zm-64-24c-2.207031 0-4 1.792969-4 4v8c0 2.207031 1.792969 4 4 4h64c2.207031 0 4-1.792969 4-4v-8c0-2.207031-1.792969-4-4-4zm0 0" fill="#212a41" data-original="#212A41" class=""/><path d="m444 240h-120c-4.414062 0-8-3.585938-8-8v-8c0-4.414062 3.585938-8 8-8h120c4.414062 0 8 3.585938 8 8v8c0 4.414062-3.585938 8-8 8zm0 0" fill="#e0e0e0" data-original="#E0E0E0" class="" style="fill:#E0E0E0"/><path d="m444 244h-120c-6.617188 0-12-5.382812-12-12v-8c0-6.617188 5.382812-12 12-12h120c6.617188 0 12 5.382812 12 12v8c0 6.617188-5.382812 12-12 12zm-120-24c-2.207031 0-4 1.792969-4 4v8c0 2.207031 1.792969 4 4 4h120c2.207031 0 4-1.792969 4-4v-8c0-2.207031-1.792969-4-4-4zm0 0" fill="#212a41" data-original="#212A41" class=""/><path d="m388 184h-80c-4.414062 0-8-3.585938-8-8v-8c0-4.414062 3.585938-8 8-8h80c4.414062 0 8 3.585938 8 8v8c0 4.414062-3.585938 8-8 8zm0 0" fill="#e0e0e0" data-original="#E0E0E0" class="" style="fill:#E0E0E0"/><path d="m388 188h-80c-6.617188 0-12-5.382812-12-12v-8c0-6.617188 5.382812-12 12-12h80c6.617188 0 12 5.382812 12 12v8c0 6.617188-5.382812 12-12 12zm-80-24c-2.207031 0-4 1.792969-4 4v8c0 2.207031 1.792969 4 4 4h80c2.207031 0 4-1.792969 4-4v-8c0-2.207031-1.792969-4-4-4zm0 0" fill="#212a41" data-original="#212A41" class=""/><path d="m364 296h-80c-4.414062 0-8-3.585938-8-8v-8c0-4.414062 3.585938-8 8-8h80c4.414062 0 8 3.585938 8 8v8c0 4.414062-3.585938 8-8 8zm0 0" fill="#e0e0e0" data-original="#E0E0E0" class="" style="fill:#E0E0E0"/><path d="m364 300h-80c-6.617188 0-12-5.382812-12-12v-8c0-6.617188 5.382812-12 12-12h80c6.617188 0 12 5.382812 12 12v8c0 6.617188-5.382812 12-12 12zm-80-24c-2.207031 0-4 1.792969-4 4v8c0 2.207031 1.792969 4 4 4h80c2.207031 0 4-1.792969 4-4v-8c0-2.207031-1.792969-4-4-4zm0 0" fill="#212a41" data-original="#212A41" class=""/></g> </svg>
